<svg width="155" height="34" viewBox="0 0 155 34" fill="none" xmlns="http://www.w3.org/2000/svg">
<g clip-path="url(#clip0_4_4)">
<path d="M55.73 17.72L53.77 11.57L51.84 17.72H55.72H55.73ZM52.22 8H55.39L61.2 25.01H58.03L56.61 20.53H50.97L49.55 25.01H46.38L52.22 8Z" fill="white"/>
<path d="M71.6 17.36C72.59 17.36 73.39 17.08 73.98 16.45C74.58 15.88 74.86 15.09 74.86 14.07C74.86 13.05 74.58 12.28 73.98 11.69C73.38 11.1 72.59 10.81 71.6 10.81H67.04V17.36H71.6ZM64 8.01H71.91C72.79 8.01 73.61 8.18 74.38 8.46C75.09 8.74 75.74 9.17 76.25 9.71C76.76 10.22 77.16 10.87 77.44 11.61C77.75 12.38 77.89 13.23 77.89 14.13C77.89 15.46 77.61 16.62 76.98 17.56C76.38 18.52 75.56 19.23 74.49 19.66L77.98 25.02H74.41L71.21 20.14H67.04V25.02H64.01V8L64 8.01Z" fill="white"/>
<path d="M83.23 16.38C83.23 18.25 83.71 19.67 84.68 20.66C85.64 21.68 87 22.19 88.76 22.19C90.52 22.19 91.88 21.68 92.87 20.66C93.83 19.67 94.34 18.25 94.34 16.38C94.34 14.51 93.83 13.06 92.87 12.04C91.88 10.99 90.52 10.48 88.76 10.48C87 10.48 85.64 10.99 84.68 12.04C83.72 13.06 83.23 14.51 83.23 16.38ZM80.2 16.38C80.2 15.05 80.4 13.86 80.8 12.78C81.2 11.73 81.76 10.8 82.53 10.03C83.27 9.28999 84.17 8.69999 85.19 8.29999C86.24 7.86999 87.43 7.67999 88.76 7.67999C90.09 7.67999 91.28 7.87999 92.36 8.29999C93.41 8.69999 94.32 9.28999 95.05 10.03C95.82 10.8 96.35 11.73 96.78 12.78C97.18 13.86 97.35 15.05 97.35 16.38C97.35 17.71 97.21 18.79 96.81 19.75C96.47 20.69 95.96 21.54 95.25 22.19H97.74V25H88.75C87.42 25 86.23 24.8 85.18 24.4C84.16 24 83.25 23.44 82.52 22.67C81.75 21.93 81.19 21.03 80.79 19.98C80.39 18.9 80.19 17.71 80.19 16.38H80.2Z" fill="white"/>
<path d="M107.15 25.31C106.1 25.31 105.19 25.17 104.37 24.88C103.55 24.57 102.84 24.17 102.24 23.6C101.64 23.03 101.22 22.38 100.91 21.62C100.6 20.83 100.43 19.98 100.43 18.98V7.98999H103.46V19.22C103.46 20.27 103.8 21.09 104.45 21.66C105.1 22.23 106.01 22.51 107.17 22.51C108.33 22.51 109.32 22.23 109.98 21.66C110.63 21.09 110.94 20.27 110.94 19.22V7.98999H113.97V18.99C113.97 19.98 113.83 20.83 113.52 21.63C113.21 22.4 112.75 23.05 112.16 23.61C111.59 24.18 110.88 24.57 110.06 24.89C109.24 25.17 108.3 25.32 107.25 25.32H107.14L107.15 25.31Z" fill="white"/>
<path d="M120.33 7.98999H117.3V25H120.33V7.98999Z" fill="white"/>
<path d="M123.25 7.98999H135.13V10.06L127.13 22.2H135.13V25H123.25V22.93L131.24 10.8H123.25V7.98999Z" fill="white"/>
<path d="M140.14 16.5C140.14 17.44 140.25 18.26 140.51 18.99C140.77 19.76 141.13 20.41 141.59 20.92C142.04 21.43 142.64 21.86 143.35 22.11C144.03 22.39 144.8 22.54 145.67 22.54C146.54 22.54 147.31 22.4 148.02 22.11C148.7 21.85 149.27 21.43 149.75 20.92C150.23 20.41 150.57 19.76 150.86 18.99C151.09 18.25 151.23 17.43 151.23 16.5C151.23 15.57 151.09 14.77 150.86 14.01C150.58 13.27 150.24 12.62 149.75 12.11C149.27 11.6 148.7 11.2 148.02 10.92C147.31 10.64 146.55 10.49 145.67 10.49C144.79 10.49 144.03 10.63 143.35 10.92C142.64 11.2 142.05 11.6 141.59 12.11C141.14 12.62 140.77 13.27 140.51 14.01C140.25 14.78 140.14 15.6 140.14 16.5ZM137.11 16.5C137.11 15.17 137.28 13.98 137.71 12.9C138.11 11.79 138.65 10.89 139.41 10.09C140.15 9.34999 141.05 8.72999 142.1 8.32999C143.15 7.89999 144.34 7.67999 145.67 7.67999C147 7.67999 148.19 7.90999 149.24 8.32999C150.29 8.72999 151.2 9.34999 151.93 10.09C152.7 10.88 153.26 11.79 153.66 12.9C154.06 13.98 154.26 15.17 154.26 16.5C154.26 17.83 154.06 19.02 153.66 20.13C153.26 21.21 152.7 22.14 151.93 22.91C151.19 23.7 150.29 24.3 149.24 24.72C148.19 25.12 147 25.34 145.67 25.34C144.34 25.34 143.15 25.11 142.1 24.72C141.05 24.29 140.14 23.7 139.41 22.91C138.64 22.14 138.11 21.21 137.71 20.13C137.28 19.02 137.11 17.83 137.11 16.5Z" fill="white"/>
<path d="M13.86 0L24.15 10.32L13.86 20.64V0L2.07 12.53V22.03H11V30.93H24.75L34.84 20.87V0H13.86ZM0 33.02H8.9V24.09H0V33.02Z" fill="white"/>
</g>
<defs>
<clipPath id="clip0_4_4">
<rect width="154.26" height="33.02" fill="white"/>
</clipPath>
</defs>
</svg>
