<svg width="78" height="93" viewBox="0 0 78 93" fill="none" xmlns="http://www.w3.org/2000/svg">
<path d="M43.2791 76.801H34.6577C30.7369 76.801 27.3853 74.0713 26.5211 70.1778C24.7293 62.158 19.7125 55.9157 19.6703 55.8522L19.4595 55.5771C19.2698 55.3444 19.1012 55.1328 18.9325 54.9C18.9115 54.8577 18.8904 54.8365 18.8693 54.7942C15.6863 50.4352 14 45.2932 14 39.8973C14 26.0584 25.2142 14.801 39 14.801C52.7858 14.801 64 26.0584 64 39.8973C64 45.272 62.3347 50.3928 59.1728 54.7096C59.1307 54.773 59.1096 54.8154 59.0675 54.8577C59.0042 54.9212 53.2707 62.1369 51.4789 70.1567C50.6147 74.0502 47.2631 76.7799 43.3212 76.7799L43.2791 76.801ZM22.3474 52.4031C22.4739 52.5724 22.6003 52.7416 22.7479 52.9109C22.8322 53.0167 22.9165 53.1437 23.0219 53.2706C23.1695 53.4399 28.6079 60.2113 30.6315 69.2468C31.0742 71.1935 32.7395 72.5689 34.6577 72.5689H43.2791C45.2184 72.5689 46.8836 71.1935 47.3052 69.2468C49.2234 60.6345 54.9148 53.2495 55.6526 52.2973C58.3086 48.6788 59.7209 44.4044 59.7209 39.8973C59.7209 28.386 50.4039 19.0331 38.9368 19.0331C27.4696 19.0331 18.1526 28.386 18.1526 39.8973C18.1526 44.3833 19.5438 48.6365 22.1998 52.2549C22.1998 52.2549 22.2841 52.3607 22.3052 52.4031H22.3474Z" fill="white"/>
<path d="M44.8548 81.801H33.1452C30.3065 81.801 28 79.6069 28 76.9065C28 74.0162 30.3065 71.801 33.1452 71.801H44.8548C47.6936 71.801 50 73.9951 50 76.6955C50 79.5858 47.6936 81.801 44.8548 81.801ZM33.1452 76.0204C32.746 76.0204 32.4355 76.3158 32.4355 76.6955C32.4355 77.2652 32.746 77.5816 33.1452 77.5816H44.8548C45.254 77.5816 45.5645 77.2863 45.5645 76.9065C45.5645 76.3369 45.254 76.0204 44.8548 76.0204H33.1452Z" fill="white"/>
<path d="M44.1627 87.801H33.8373C31.1692 87.801 29 85.6318 29 82.9637V82.6383C29 79.9702 31.1692 77.801 33.8373 77.801H44.1627C46.8308 77.801 49 79.9702 49 82.6383V82.9637C49 85.6318 46.8308 87.801 44.1627 87.801ZM33.8373 82.1394C33.5553 82.1394 33.3384 82.3563 33.3384 82.6383V82.9637C33.3384 83.2457 33.5553 83.4626 33.8373 83.4626H44.1627C44.4447 83.4626 44.6616 83.2457 44.6616 82.9637V82.6383C44.6616 82.3563 44.4447 82.1394 44.1627 82.1394H33.8373Z" fill="white"/>
<path d="M43.4607 92.801H34.5393C32.0449 92.801 30 91.001 30 88.8054V87.7966C30 85.601 32.0449 83.801 34.5393 83.801H43.4607C45.9551 83.801 48 85.601 48 87.7966V88.8054C48 91.001 45.9551 92.801 43.4607 92.801ZM34.5393 87.7571L34.4944 88.8054L43.4607 88.845L43.5056 87.7966L43.4607 87.7571H34.5393Z" fill="white"/>
<path d="M35.0414 76.801C33.9641 76.801 33.0827 75.8209 33.0827 74.6229V50.5329L29.1459 39.7948C28.7346 38.684 29.2242 37.3989 30.2231 36.9632C31.222 36.5058 32.3776 37.0504 32.7693 38.1612L36.8629 49.2914C36.9608 49.5528 37 49.8359 37 50.1191V74.6229C37 75.8209 36.1186 76.801 35.0414 76.801Z" fill="white"/>
<path d="M42.2035 76.801C40.9916 76.801 40 75.8206 40 74.6224V50.113C40 49.8298 40.0661 49.5466 40.1542 49.2852L44.7595 38.1525C45.2222 37.0414 46.5002 36.5185 47.624 36.9542C48.7478 37.4117 49.2986 38.6753 48.8359 39.7864L44.4069 50.527V74.6224C44.4069 75.8206 43.4154 76.801 42.2035 76.801Z" fill="white"/>
<path d="M38.9895 11.5917C37.8335 11.5917 36.8876 10.645 36.8876 9.48798V2.10376C36.8876 0.946694 37.8335 0 38.9895 0C40.1455 0 41.0914 0.946694 41.0914 2.10376V9.48798C41.0914 10.645 40.1455 11.5917 38.9895 11.5917Z" fill="white"/>
<path d="M9.47938 40.7499H2.10186C0.945836 40.7499 0 39.8032 0 38.6461C0 37.4891 0.945836 36.5424 2.10186 36.5424H9.47938C10.6354 36.5424 11.5812 37.4891 11.5812 38.6461C11.5812 39.8032 10.6354 40.7499 9.47938 40.7499Z" fill="white"/>
<path d="M75.8981 40.7499H68.5206C67.3646 40.7499 66.4188 39.8032 66.4188 38.6461C66.4188 37.4891 67.3646 36.5424 68.5206 36.5424H75.8981C77.0542 36.5424 78 37.4891 78 38.6461C78 39.8032 77.0542 40.7499 75.8981 40.7499Z" fill="white"/>
<path d="M17.8447 20.1331C17.3193 20.1331 16.7938 19.9437 16.3734 19.544L11.0978 14.3898C10.257 13.5693 10.257 12.2439 11.0557 11.4235C11.8755 10.582 13.1996 10.582 14.0193 11.3814L19.295 16.5356C20.1358 17.3561 20.1358 18.6815 19.3371 19.5019C18.9167 19.9227 18.3702 20.1331 17.8237 20.1331H17.8447Z" fill="white"/>
<path d="M65.4309 66.521C64.9054 66.521 64.38 66.3317 63.9596 65.9319L58.6839 60.7777C57.8432 59.9573 57.8432 58.6319 58.6419 57.8114C59.4616 56.9699 60.7858 56.9699 61.6055 57.7693L66.8812 62.9236C67.7219 63.744 67.7219 65.0694 66.9232 65.8899C66.5029 66.3106 65.9564 66.521 65.4099 66.521H65.4309Z" fill="white"/>
<path d="M60.1552 20.1331C59.6087 20.1331 59.0622 19.9228 58.6419 19.502C57.8221 18.6605 57.8432 17.3351 58.6839 16.5357L63.9596 11.3815C64.8003 10.561 66.1245 10.5821 66.9232 11.4236C67.7429 12.2651 67.7219 13.5904 66.8811 14.3899L61.6055 19.5441C61.2061 19.9438 60.6596 20.1331 60.1342 20.1331H60.1552Z" fill="white"/>
<path d="M12.5691 66.5208C12.0227 66.5208 11.4762 66.3105 11.0558 65.8897C10.2361 65.0482 10.2571 63.7228 11.0978 62.9234L16.3735 57.7692C17.2142 56.9487 18.5384 56.9697 19.3371 57.8112C20.1568 58.6528 20.1358 59.9781 19.2951 60.7776L14.0194 65.9318C13.6201 66.3315 13.0736 66.5208 12.5481 66.5208H12.5691Z" fill="white"/>
</svg>
