<svg width="93" height="93" viewBox="0 0 93 93" fill="none" xmlns="http://www.w3.org/2000/svg">
<path d="M90.1632 48.2608H74.5476C73.8416 48.2608 73.1979 47.9075 72.8033 47.3256C72.4296 46.7436 72.3673 45.9954 72.6372 45.3511C72.9902 44.5613 73.1563 43.7091 73.1563 42.8362C73.1563 39.677 70.9137 37.0997 68.1311 37.0997C65.3486 37.0997 63.0851 39.677 63.0851 42.8362C63.0851 43.7091 63.2513 44.5613 63.6043 45.3511C63.8742 45.9954 63.8119 46.7436 63.4381 47.3256C63.0436 47.9075 62.3999 48.2608 61.6939 48.2608H46.0783C44.9362 48.2608 44.0018 47.3256 44.0018 46.1824V30.5527C44.0018 29.8461 44.3548 29.181 44.957 28.8069C45.5592 28.4327 46.3067 28.3704 46.9297 28.6614C47.698 29.0147 48.5286 29.181 49.4215 29.181C52.5779 29.181 55.1528 26.9363 55.1528 24.1512C55.1528 21.3661 52.5779 19.1007 49.4215 19.1007C48.5286 19.1007 47.698 19.2669 46.9089 19.6203C46.2652 19.8905 45.5176 19.8281 44.9362 19.454C44.3548 19.0799 44.0018 18.4148 44.0018 17.7081V2.07842C44.0018 0.935288 44.9362 0 46.0783 0H90.1216C91.2637 0 92.1982 0.935288 92.1982 2.07842V46.1616C92.1982 47.3048 91.2637 48.2401 90.1216 48.2401L90.1632 48.2608ZM77.2471 44.104H88.0866V4.17762H48.1964V15.027C48.6117 14.9854 49.027 14.9438 49.4631 14.9438C54.9036 14.9438 59.3474 19.0799 59.3474 24.1512C59.3474 29.2225 54.9244 33.3378 49.4631 33.3378C49.027 33.3378 48.6117 33.317 48.1964 33.2547V44.104H59.0359C58.9944 43.6883 58.9528 43.2726 58.9528 42.8362C58.9528 37.3907 63.0851 32.9429 68.1519 32.9429C73.2186 32.9429 77.3302 37.3699 77.3302 42.8362C77.3302 43.2726 77.3094 43.6883 77.2471 44.104Z" fill="white"/>
<path d="M46.1198 92.3648H2.07653C0.934441 92.3648 0 91.4295 0 90.2864V46.2032C0 45.06 0.934441 44.1248 2.07653 44.1248H17.6921C18.3981 44.1248 19.0626 44.4781 19.4364 45.0808C19.8101 45.6836 19.8724 46.4318 19.5817 47.0761C19.2495 47.8036 19.0626 48.6765 19.0626 49.5494C19.0626 52.7086 21.3052 55.2859 24.0878 55.2859C26.8704 55.2859 29.1338 52.7086 29.1338 49.5494C29.1338 48.6557 28.9677 47.8036 28.6146 47.0345C28.3239 46.3902 28.3862 45.642 28.7808 45.06C29.1753 44.4781 29.819 44.1248 30.5251 44.1248H46.1406C47.2827 44.1248 48.2171 45.06 48.2171 46.2032V59.1309C48.6324 59.0894 49.0478 59.0478 49.4838 59.0478C54.9243 59.0478 59.3681 63.1838 59.3681 68.2552C59.3681 73.3265 54.9451 77.4418 49.4838 77.4418C49.0478 77.4418 48.6324 77.421 48.2171 77.3586V90.2864C48.2171 91.4295 47.2827 92.3648 46.1406 92.3648H46.1198ZM4.15307 88.208H44.0433V74.6567C44.0433 73.95 44.3963 73.2849 44.9985 72.9108C45.6007 72.5367 46.3483 72.4744 46.9712 72.7653C47.7395 73.1187 48.5701 73.2849 49.4631 73.2849C52.6194 73.2849 55.1943 71.0403 55.1943 68.2552C55.1943 65.4701 52.6194 63.2046 49.4631 63.2046C48.5909 63.2046 47.7395 63.3709 46.9505 63.7242C46.3067 63.9944 45.5592 63.9321 44.9777 63.5579C44.3963 63.1838 44.0433 62.5187 44.0433 61.8121V48.2608H33.2038C33.2453 48.6765 33.2868 49.113 33.2868 49.5286C33.2868 54.9741 29.1545 59.4219 24.0878 59.4219C19.0211 59.4219 14.9095 54.9949 14.9095 49.5286C14.9095 49.0922 14.9303 48.6765 14.9926 48.2608H4.15307V88.1872V88.208Z" fill="white"/>
<path d="M90.1632 92.3648H46.1198C44.9777 92.3648 44.0433 91.4295 44.0433 90.2864V74.6567C44.0433 73.95 44.3963 73.2849 44.9985 72.9108C45.6007 72.5367 46.3483 72.4744 46.9712 72.7653C47.7395 73.1187 48.5702 73.2849 49.4631 73.2849C52.6194 73.2849 55.1943 71.0403 55.1943 68.2552C55.1943 65.4701 52.6194 63.2046 49.4631 63.2046C48.5909 63.2046 47.7395 63.3709 46.9505 63.7242C46.3067 63.9944 45.5592 63.9321 44.9778 63.558C44.3963 63.1838 44.0433 62.5187 44.0433 61.8121V46.1824C44.0433 45.0393 44.9777 44.104 46.1198 44.104H59.0359C58.9944 43.6883 58.9528 43.2726 58.9528 42.8361C58.9528 37.3907 63.0851 32.9429 68.1519 32.9429C73.2186 32.9429 77.3302 37.3699 77.3302 42.8361C77.3302 43.2726 77.3094 43.6883 77.2471 44.104H90.1632C91.3052 44.104 92.2397 45.0393 92.2397 46.1824V61.8121C92.2397 62.5187 91.8867 63.1631 91.3053 63.558C90.7238 63.9529 89.9762 64.0152 89.3325 63.7242C88.5434 63.3709 87.6921 63.2046 86.8199 63.2046C83.6636 63.2046 81.0887 65.4493 81.0887 68.2344C81.0887 71.0195 83.6636 73.2849 86.8199 73.2849C87.7128 73.2849 88.5434 73.1187 89.3118 72.7653C89.9555 72.4744 90.703 72.5367 91.2845 72.9108C91.8867 73.2849 92.2397 73.95 92.2397 74.6567V90.2864C92.2397 91.4295 91.3052 92.3648 90.1632 92.3648ZM48.1964 88.208H88.0866V77.3586C87.6713 77.4002 87.256 77.4418 86.8199 77.4418C81.3794 77.4418 76.9356 73.3057 76.9356 68.2344C76.9356 63.1631 81.3586 59.0478 86.8199 59.0478C87.256 59.0478 87.6713 59.0686 88.0866 59.1309V48.2816H74.5476C73.8416 48.2816 73.1979 47.9283 72.8033 47.3463C72.4295 46.7643 72.3672 46.0161 72.6372 45.3718C72.9902 44.582 73.1563 43.7299 73.1563 42.8569C73.1563 39.6977 70.9137 37.1205 68.1311 37.1205C65.3486 37.1205 63.0851 39.6977 63.0851 42.8569C63.0851 43.7299 63.2512 44.582 63.6043 45.3718C63.8742 46.0161 63.8119 46.7643 63.4381 47.3463C63.0436 47.9283 62.3999 48.2816 61.6938 48.2816H48.1549V59.1309C48.5702 59.0894 48.9855 59.0478 49.4215 59.0478C54.8621 59.0478 59.3058 63.1838 59.3058 68.2552C59.3058 73.3265 54.8828 77.4418 49.4215 77.4418C48.9855 77.4418 48.5702 77.421 48.1549 77.3586V88.208H48.1964Z" fill="white"/>
<path d="M24.0878 59.4219C19.0211 59.4219 14.9095 54.9949 14.9095 49.5286C14.9095 49.0922 14.9303 48.6765 14.9926 48.2608H2.07653C0.934441 48.2608 0 47.3255 0 46.1824V2.09917C0 0.95604 0.934441 0.020752 2.07653 0.020752H17.6921C18.3981 0.020752 19.0626 0.374083 19.4364 0.976824C19.8101 1.57956 19.8724 2.32779 19.5817 2.95132C19.2287 3.72033 19.0626 4.5517 19.0626 5.44542C19.0626 8.60461 21.3052 11.1819 24.0878 11.1819C26.8704 11.1819 29.1338 8.60461 29.1338 5.44542C29.1338 4.5517 28.9677 3.72033 28.6146 2.93054C28.3447 2.28623 28.407 1.538 28.7808 0.956039C29.1545 0.374082 29.819 0.020752 30.5251 0.020752H46.1406C47.2827 0.020752 48.2171 0.95604 48.2171 2.09917V15.0269C48.6324 14.9854 49.0478 14.9438 49.4838 14.9438C54.9243 14.9438 59.3681 19.0798 59.3681 24.1512C59.3681 29.2225 54.9451 33.3378 49.4838 33.3378C49.0478 33.3378 48.6324 33.317 48.2171 33.2546V46.1824C48.2171 47.3255 47.2827 48.2608 46.1406 48.2608H33.2246C33.2661 48.6765 33.3076 49.113 33.3076 49.5286C33.3076 54.9741 29.1753 59.4219 24.1086 59.4219H24.0878ZM4.15307 44.104H17.6921C18.3981 44.104 19.0626 44.4573 19.4364 45.06C19.8101 45.6628 19.8724 46.411 19.5817 47.0553C19.2495 47.7828 19.0626 48.6557 19.0626 49.5286C19.0626 52.6878 21.3052 55.2651 24.0878 55.2651C26.8704 55.2651 29.1338 52.6878 29.1338 49.5286C29.1338 48.6349 28.9677 47.7828 28.6146 47.0138C28.3239 46.3695 28.3862 45.6212 28.7808 45.0393C29.1753 44.4573 29.819 44.104 30.5251 44.104H44.0641V30.5527C44.0641 29.846 44.4171 29.1809 45.0193 28.8068C45.6215 28.4327 46.369 28.3704 46.992 28.6613C47.7603 29.0147 48.5909 29.1809 49.4838 29.1809C52.6402 29.1809 55.2151 26.9363 55.2151 24.1512C55.2151 21.3661 52.6402 19.1006 49.4838 19.1006C48.5909 19.1006 47.7603 19.2669 46.9712 19.6202C46.3275 19.8904 45.5799 19.8281 44.9985 19.454C44.4171 19.0798 44.0641 18.4147 44.0641 17.7081V4.1568H33.2246C33.2661 4.57248 33.3076 4.98817 33.3076 5.42464C33.3076 10.8701 29.1753 15.3179 24.1086 15.3179C19.0418 15.3179 14.9303 10.8909 14.9303 5.42464C14.9303 4.98817 14.9511 4.57248 15.0134 4.1568H4.17384V44.0832L4.15307 44.104Z" fill="white"/>
</svg>
