<svg width="102" height="102" viewBox="0 0 102 102" fill="none" xmlns="http://www.w3.org/2000/svg">
<g clip-path="url(#clip0_34_13)">
<path d="M73.7008 63.5649C86.023 51.258 86.023 31.3045 73.7008 18.9976C61.3787 6.69072 41.4005 6.69071 29.0783 18.9976C16.7561 31.3045 16.7561 51.258 29.0783 63.5649C41.4005 75.8718 61.3787 75.8718 73.7008 63.5649Z" stroke="white" stroke-width="3" stroke-linecap="round" stroke-linejoin="round"/>
<path d="M63.1601 72.7979H39.5994C36.6701 72.7979 34.3014 75.1636 34.3014 78.0893C34.3014 81.0149 36.6701 83.3807 39.5994 83.3807H63.1601C66.0894 83.3807 68.4581 81.0149 68.4581 78.0893C68.4581 75.1636 66.0894 72.7979 63.1601 72.7979Z" stroke="white" stroke-width="3" stroke-linecap="round" stroke-linejoin="round"/>
<path d="M61.3519 83.3625H41.4437C38.9665 83.3625 36.9775 85.3672 36.9775 87.8232C36.9775 90.2974 38.9846 92.2839 41.4437 92.2839H61.3519C63.8291 92.2839 65.8181 90.2793 65.8181 87.8232C65.8181 85.3491 63.811 83.3625 61.3519 83.3625Z" stroke="white" stroke-width="3" stroke-linecap="round" stroke-linejoin="round"/>
<path d="M59.164 92.302H43.5955C41.6607 92.302 40.1057 93.8732 40.1057 95.7875C40.1057 97.7198 41.6788 99.273 43.5955 99.273H59.164C61.0987 99.273 62.6538 97.7018 62.6538 95.7875C62.6538 93.8551 61.0807 92.302 59.164 92.302Z" stroke="white" stroke-width="3" stroke-linecap="round" stroke-linejoin="round"/>
<path d="M28.7864 2.70898C28.7864 2.70898 11.2831 13.021 8.15494 33.681" stroke="white" stroke-width="3" stroke-linecap="round" stroke-linejoin="round"/>
<path d="M2.71228 33.1211L14.0496 34.2588L6.96153 47.659L2.71228 33.1211Z" stroke="white" stroke-width="3" stroke-linecap="round" stroke-linejoin="round"/>
<path d="M87.2632 65.881C87.2632 65.881 99.2696 51.8127 94.0982 29.8884" stroke="white" stroke-width="3" stroke-linecap="round" stroke-linejoin="round"/>
<path d="M99.2877 28.1187L88.4928 31.8028L89.3607 16.6689L99.2877 28.1187Z" stroke="white" stroke-width="3" stroke-linecap="round" stroke-linejoin="round"/>
<path d="M60.1585 19.8293C60.1585 19.8293 68.4762 23.0259 73.0147 31.8028" stroke="white" stroke-width="3" stroke-linecap="round" stroke-linejoin="round"/>
</g>
<defs>
<clipPath id="clip0_34_13">
<rect width="102" height="102" fill="white"/>
</clipPath>
</defs>
</svg>
