<svg width="94" height="92" viewBox="0 0 94 92" fill="none" xmlns="http://www.w3.org/2000/svg">
<path d="M26.685 85.1496C26.5605 85.1496 26.4359 85.1496 26.3113 85.108C25.626 84.9833 25.0446 84.5053 24.7746 83.8609L21.0369 74.799L11.8378 71.4528C11.1733 71.2034 10.6957 70.663 10.5296 69.9771C10.3635 69.2912 10.5711 68.5846 11.0487 68.065L72.888 2.74033C76.2935 -0.813766 81.9209 -0.917688 85.451 2.47013L89.7702 6.62697C91.4937 8.26892 92.4489 10.472 92.5112 12.8622C92.5527 15.2316 91.6806 17.4763 90.0401 19.2014L28.2009 84.526C27.8064 84.9417 27.2665 85.1703 26.685 85.1703V85.1496ZM16.2193 68.6262L23.3211 71.2034C23.861 71.4112 24.3178 71.8269 24.5254 72.3673L27.3911 79.3092L87.0291 16.3124C87.9013 15.3979 88.3789 14.1924 88.3581 12.9246C88.3374 11.6567 87.8182 10.4928 86.9046 9.61989L82.5854 5.46305C80.6957 3.65483 77.7055 3.71718 75.8989 5.60854L16.2401 68.6262H16.2193Z" fill="white"/>
<path d="M85.9909 22.4853C85.4718 22.4853 84.9526 22.2983 84.5581 21.9034L70.3961 8.33131C69.5655 7.54151 69.5447 6.21133 70.3338 5.40074C71.1229 4.56938 72.4519 4.54859 73.2617 5.33839L87.4237 18.9105C88.2543 19.7003 88.2751 21.0304 87.486 21.841C87.0707 22.2775 86.5308 22.4853 85.9909 22.4853Z" fill="white"/>
<path d="M6.87491 91.6757C6.35578 91.6757 5.83665 91.4679 5.4421 91.0938C4.88144 90.5534 4.67378 89.7636 4.88144 89.0361L10.5504 68.9378C10.8619 67.8363 12.004 67.192 13.1045 67.5037C14.2051 67.8155 14.8488 68.9586 14.5373 70.0602L9.92742 86.3965L26.0413 81.0966C27.1211 80.7432 28.3048 81.3252 28.6578 82.4268C29.0108 83.5075 28.4293 84.6922 27.3288 85.0456L7.51864 91.5718C7.31098 91.6342 7.08256 91.6757 6.87491 91.6757Z" fill="white"/>
<path d="M22.5943 75.2355C22.0751 75.2355 21.5768 75.0485 21.1615 74.6743C20.3308 73.8845 20.2893 72.5751 21.0784 71.7438L77.3733 12.2179C78.1623 11.3865 79.4706 11.345 80.3012 12.1348C81.1318 12.9246 81.1733 14.234 80.3842 15.0653L24.0894 74.5912C23.6741 75.0277 23.1342 75.2355 22.5735 75.2355H22.5943Z" fill="white"/>
<path d="M33.0808 49.8786C32.5824 49.8786 32.084 49.6916 31.6687 49.3382L0.66605 20.7392C0.271509 20.3651 0.0223254 19.8455 0.00156003 19.3051C-0.0192053 18.7647 0.167679 18.2243 0.541456 17.8086L16.3231 0.682488C17.1122 -0.148879 18.4204 -0.211231 19.251 0.557783L50.4821 29.3854C51.3335 30.1544 51.375 31.4846 50.6067 32.316C49.8176 33.1681 48.5094 33.2097 47.6788 32.4407L17.9844 5.02638L5.02677 19.0973L34.5136 46.283C35.3649 47.052 35.4065 48.3822 34.6382 49.2135C34.2229 49.65 33.6622 49.8786 33.1015 49.8786H33.0808Z" fill="white"/>
<path d="M76.1689 89.6596C75.6705 89.6596 75.1514 89.4725 74.7568 89.0984L46.0799 62.6194C45.2285 61.8504 45.187 60.5202 45.9553 59.6888C46.7236 58.8367 48.0526 58.7951 48.8832 59.5641L76.0443 84.6298L89.0018 70.5797L62.0692 45.7011C61.2178 44.9321 61.1763 43.6019 61.9446 42.7705C62.7337 41.9391 64.0419 41.8768 64.8725 42.6458L93.3418 68.9378C93.7364 69.3119 93.9855 69.8315 94.0063 70.3719C94.0271 70.9331 93.8402 71.4527 93.4664 71.8683L77.6847 88.9737C77.2694 89.4102 76.7088 89.6388 76.1689 89.6388V89.6596Z" fill="white"/>
<path d="M16.1362 18.3907C15.6379 18.3907 15.1187 18.2037 14.7242 17.8296C13.8728 17.0606 13.8313 15.7304 14.5996 14.899L22.4904 6.33593C23.2587 5.50456 24.5877 5.44221 25.4183 6.21122C26.2697 6.98024 26.3112 8.31043 25.5429 9.14179L17.6521 17.7049C17.2368 18.1413 16.6761 18.37 16.1155 18.37L16.1362 18.3907Z" fill="white"/>
<path d="M24.7331 21.4669C24.2347 21.4669 23.7156 21.2798 23.321 20.9057C22.4697 20.1367 22.4281 18.8065 23.1965 17.9751L28.6577 12.0516C29.4261 11.1995 30.755 11.1579 31.5857 11.9269C32.437 12.696 32.4786 14.0261 31.7102 14.8575L26.249 20.781C25.8337 21.2175 25.273 21.4461 24.7331 21.4461V21.4669Z" fill="white"/>
<path d="M27.1626 28.575C26.6643 28.575 26.1451 28.3879 25.7506 28.0138C24.8992 27.2448 24.8577 25.9146 25.626 25.0832L33.5168 16.5201C34.2851 15.6888 35.6141 15.6264 36.4447 16.3954C37.2961 17.1644 37.3376 18.4946 36.5693 19.326L28.6785 27.8891C28.2632 28.3255 27.7025 28.5542 27.1419 28.5542L27.1626 28.575Z" fill="white"/>
<path d="M35.4895 31.3808C34.9912 31.3808 34.472 31.1937 34.0775 30.8196C33.2261 30.0506 33.1846 28.7204 33.9529 27.8891L39.4142 21.9656C40.1825 21.1342 41.5115 21.0719 42.3421 21.8409C43.1935 22.6099 43.235 23.9401 42.4667 24.7714L37.0054 30.6949C36.5901 31.1314 36.0294 31.36 35.4688 31.36L35.4895 31.3808Z" fill="white"/>
<path d="M37.9191 38.5098C37.4207 38.5098 36.9016 38.3227 36.507 37.9486C35.6557 37.1796 35.6141 35.8494 36.3825 35.018L44.2733 26.455C45.0416 25.6236 46.3706 25.5612 47.2012 26.3302C48.0526 27.0993 48.0941 28.4294 47.3258 29.2608L39.435 37.8239C39.0197 38.2604 38.459 38.489 37.8983 38.489L37.9191 38.5098Z" fill="white"/>
<path d="M60.3872 59.2525C59.8888 59.2525 59.3697 59.0654 58.9751 58.6913C58.1238 57.9223 58.0822 56.5921 58.8506 55.7607L66.7414 47.1976C67.5097 46.3455 68.8387 46.3039 69.6693 47.0729C70.5207 47.842 70.5622 49.1721 69.7939 50.0035L61.9031 58.5666C61.4878 59.0031 60.9271 59.2317 60.3664 59.2317L60.3872 59.2525Z" fill="white"/>
<path d="M68.984 62.3076C68.4857 62.3076 67.9665 62.1205 67.572 61.7464C66.7206 60.9774 66.6791 59.6472 67.4474 58.8158L72.9087 52.8923C73.6978 52.0402 75.006 51.9986 75.8366 52.7676C76.688 53.5367 76.7295 54.8668 75.9612 55.6982L70.4999 61.6217C70.0846 62.0582 69.524 62.2868 68.9633 62.2868L68.984 62.3076Z" fill="white"/>
<path d="M71.4136 69.4365C70.9152 69.4365 70.3961 69.2495 70.0015 68.8754C69.1502 68.1064 69.1086 66.7762 69.8769 65.9448L77.7678 57.3817C78.5361 56.5296 79.8651 56.488 80.6957 57.257C81.5471 58.026 81.5886 59.3562 80.8203 60.1876L72.9295 68.7507C72.5141 69.1871 71.9535 69.4158 71.3928 69.4158L71.4136 69.4365Z" fill="white"/>
<path d="M77.9754 70.6214C77.4771 70.6214 76.9579 70.4344 76.5634 70.0602C75.712 69.2912 75.6705 67.961 76.4388 67.1297L81.9001 61.2062C82.6684 60.354 83.9974 60.3125 84.828 61.0815C85.6794 61.8505 85.7209 63.1807 84.9526 64.0121L79.4913 69.9355C79.076 70.372 78.5153 70.6006 77.9754 70.6006V70.6214Z" fill="white"/>
</svg>
